<?xml version="1.0" standalone="no"?>
<!DOCTYPE svg PUBLIC "-//W3C//DTD SVG 20010904//EN"
 "http://www.w3.org/TR/2001/REC-SVG-20010904/DTD/svg10.dtd">
<svg version="1.0" xmlns="http://www.w3.org/2000/svg"
 width="3558.000000pt" height="3558.000000pt" viewBox="0 0 3558.000000 3558.000000"
 preserveAspectRatio="xMidYMid meet">
<metadata>
Created by potrace 1.11, written by Peter Selinger 2001-2013
</metadata>
<g transform="translate(0.000000,3558.000000) scale(0.100000,-0.100000)"
fill="#000000" stroke="none">
<path d="M17629 35506 c-2 -2 -53 -7 -114 -10 -206 -13 -540 -68 -735 -121 -8
-2 -42 -11 -75 -20 -98 -27 -290 -92 -424 -146 -200 -79 -378 -172 -791 -409
-212 -122 -403 -232 -425 -245 -45 -25 -44 -24 -280 -160 -188 -109 -219 -126
-285 -163 -25 -14 -61 -36 -80 -49 -19 -12 -38 -23 -43 -23 -4 0 -25 -11 -46
-24 -33 -22 -579 -336 -688 -397 -21 -12 -175 -100 -343 -197 -634 -365 -820
-472 -985 -566 -93 -54 -177 -102 -185 -107 -39 -23 -358 -206 -371 -212 -8
-4 -30 -17 -49 -28 -19 -11 -102 -59 -185 -106 -148 -85 -286 -165 -315 -183
-8 -5 -28 -16 -45 -25 -16 -8 -37 -19 -45 -25 -24 -16 -293 -170 -296 -170 -2
0 -32 -17 -66 -38 -35 -21 -88 -52 -118 -69 -30 -16 -100 -56 -155 -88 -55
-32 -114 -66 -132 -76 -17 -10 -154 -88 -303 -174 -278 -160 -312 -179 -390
-223 -25 -14 -62 -36 -82 -49 -21 -12 -40 -23 -43 -23 -3 0 -22 -11 -43 -24
-36 -22 -331 -193 -422 -244 -25 -13 -101 -57 -170 -97 -69 -40 -148 -86 -175
-101 -66 -38 -336 -193 -355 -204 -53 -32 -222 -130 -225 -130 -2 0 -43 -23
-92 -51 -48 -28 -146 -85 -218 -126 -239 -138 -455 -294 -665 -478 -73 -64
-301 -294 -369 -372 -148 -169 -378 -485 -441 -608 -6 -11 -24 -42 -40 -70
-117 -198 -281 -570 -356 -806 -73 -229 -144 -547 -169 -754 -3 -27 -8 -63
-10 -80 -2 -16 -7 -73 -12 -125 -10 -120 -11 -9614 0 -9734 4 -49 9 -98 12
-110 2 -11 7 -46 10 -76 3 -30 7 -66 10 -80 2 -14 6 -41 9 -60 3 -19 8 -46 11
-60 3 -14 8 -43 11 -65 4 -22 22 -103 41 -180 19 -77 36 -148 38 -159 9 -43
120 -359 160 -457 322 -781 890 -1467 1600 -1935 146 -95 113 -76 380 -230
121 -70 254 -147 295 -171 41 -24 82 -48 90 -53 8 -5 83 -47 165 -95 83 -47
157 -90 165 -95 8 -6 22 -13 30 -17 8 -4 32 -17 53 -31 22 -13 60 -35 85 -49
55 -31 609 -351 865 -499 98 -57 180 -104 182 -104 2 0 49 -27 103 -60 55 -33
105 -60 111 -60 6 0 11 -4 11 -9 0 -5 8 -11 18 -14 9 -3 40 -20 67 -36 28 -17
57 -34 65 -38 8 -4 47 -25 85 -48 189 -112 246 -145 249 -145 2 0 33 -17 67
-38 60 -36 559 -324 659 -380 25 -14 61 -35 80 -47 19 -12 42 -25 50 -28 8 -4
29 -16 45 -26 33 -20 187 -110 250 -146 46 -25 46 -26 300 -172 105 -61 246
-143 315 -183 69 -40 141 -81 160 -92 19 -10 53 -30 75 -43 22 -14 59 -34 81
-46 29 -15 47 -33 57 -58 12 -29 179 -399 292 -646 33 -74 55 -122 140 -310
104 -230 103 -227 190 -420 43 -93 94 -208 115 -255 21 -47 53 -119 72 -160
20 -41 53 -115 76 -165 22 -49 140 -310 262 -580 122 -269 231 -510 242 -535
23 -50 106 -234 145 -320 69 -151 501 -1108 539 -1193 25 -54 62 -136 84 -183
22 -47 40 -88 40 -90 0 -2 15 -36 34 -76 19 -40 46 -100 61 -133 67 -148 310
-685 330 -730 48 -102 185 -407 185 -410 0 -2 25 -55 55 -120 30 -64 55 -118
55 -120 0 -2 15 -36 34 -77 51 -111 74 -162 196 -433 62 -137 124 -275 138
-305 14 -30 52 -113 84 -185 33 -71 67 -146 75 -165 46 -103 66 -147 133 -295
15 -33 37 -82 50 -110 12 -27 35 -77 50 -110 15 -33 38 -82 50 -110 12 -27 42
-93 65 -145 24 -52 75 -165 113 -250 107 -237 122 -270 152 -335 15 -33 57
-125 93 -205 36 -80 111 -246 167 -370 56 -124 119 -263 140 -310 21 -47 56
-125 79 -173 23 -49 41 -90 41 -92 0 -1 19 -43 41 -92 23 -48 92 -200 154
-338 62 -137 124 -275 138 -305 14 -30 37 -82 51 -114 31 -71 29 -73 96 79 24
55 63 142 87 194 24 51 43 95 43 97 0 2 15 36 34 76 19 40 89 195 156 343 67
149 133 293 145 320 13 28 44 95 68 151 25 55 59 130 76 166 17 36 31 68 31
71 0 3 20 47 44 99 24 51 60 131 81 178 21 47 60 132 86 188 27 57 49 105 49
107 0 2 13 32 29 67 78 170 151 330 226 498 46 102 97 214 113 250 17 36 62
137 102 225 40 88 157 347 260 575 103 228 274 606 380 840 106 234 204 450
218 480 14 30 26 57 27 60 2 5 27 62 68 150 14 30 100 222 192 425 92 204 178
395 192 425 14 30 39 84 55 119 16 36 35 79 43 95 7 17 80 177 160 356 81 179
157 348 170 375 13 28 64 142 115 255 129 286 127 283 221 487 17 38 60 133
96 213 36 80 80 178 99 218 19 40 34 74 34 76 0 2 21 48 46 102 25 55 51 113
59 129 7 17 27 59 43 95 32 72 48 106 117 260 26 58 59 130 73 160 14 30 26
57 27 60 0 3 10 25 22 50 16 35 208 460 278 615 7 17 32 69 54 118 23 48 41
89 41 91 0 3 20 47 44 98 24 51 50 109 59 128 8 19 31 70 51 112 20 42 36 79
36 82 0 2 23 52 50 111 28 59 50 108 50 110 0 1 20 45 44 96 24 52 67 146 95
209 l52 116 167 96 c92 53 270 155 395 227 126 73 243 140 260 150 18 10 88
51 157 91 69 40 143 82 165 95 130 74 625 361 650 376 17 11 37 22 45 26 13 6
111 63 160 93 8 5 38 21 65 36 28 14 62 35 77 45 14 11 28 19 31 19 3 0 41 21
84 46 77 47 111 66 188 109 22 13 81 47 130 75 166 98 210 122 265 153 30 16
67 38 82 49 14 10 28 18 31 18 4 0 319 181 347 200 8 6 22 13 30 17 8 4 78 44
155 89 77 45 156 91 175 102 19 10 96 54 170 97 74 43 149 86 165 95 17 9 87
50 155 90 69 40 145 84 170 98 25 13 50 28 55 32 6 4 30 19 55 32 56 32 188
107 395 227 88 51 180 104 205 119 124 70 341 222 480 335 695 564 1191 1343
1415 2222 18 71 36 144 39 160 3 17 14 80 25 140 18 100 24 140 36 230 5 33
12 109 22 225 9 105 8 9431 -1 9560 -4 58 -9 116 -11 130 -2 14 -6 50 -10 80
-10 88 -16 134 -20 150 -2 8 -7 35 -10 60 -4 25 -11 68 -17 95 -5 28 -12 64
-15 80 -26 153 -144 544 -221 737 -118 293 -285 604 -460 858 -57 83 -235 316
-251 330 -3 3 -40 43 -81 90 -306 346 -695 654 -1140 902 -25 14 -61 34 -80
45 -249 144 -506 292 -550 316 -30 16 -62 36 -71 43 -8 8 -18 14 -21 14 -8 0
-336 188 -370 212 -16 11 -28 17 -28 14 0 -3 -25 10 -55 29 -30 19 -56 35 -59
35 -3 0 -30 16 -60 35 -30 19 -57 35 -60 35 -2 0 -62 34 -131 75 -70 41 -128
75 -130 75 -2 0 -38 20 -79 45 -42 25 -79 45 -82 45 -3 0 -18 8 -32 19 -15 10
-47 29 -72 43 -50 28 -302 173 -547 314 -90 52 -167 94 -173 94 -5 0 -10 4
-10 9 0 5 -8 11 -17 14 -10 4 -38 18 -63 33 -25 15 -58 34 -75 44 -66 37 -576
331 -670 385 -55 32 -120 69 -145 83 -25 14 -78 45 -118 69 -41 24 -76 43 -78
43 -2 0 -21 11 -42 23 -20 13 -57 35 -82 49 -25 14 -182 104 -350 200 -168 97
-321 185 -340 196 -19 11 -93 53 -165 94 -71 42 -155 89 -185 107 -30 17 -62
36 -70 41 -8 6 -22 13 -30 17 -8 4 -80 45 -160 91 -129 75 -212 123 -330 189
-19 11 -70 41 -113 67 -43 25 -81 46 -83 46 -2 0 -21 11 -42 23 -20 13 -57 35
-82 49 -25 14 -164 94 -310 178 -146 84 -285 164 -310 178 -25 13 -70 39 -100
57 -30 18 -71 42 -90 52 -19 11 -143 82 -275 158 -132 76 -316 182 -410 235
-93 54 -186 107 -205 119 -19 11 -42 24 -50 28 -8 4 -43 24 -78 45 -34 21 -64
38 -66 38 -3 0 -37 19 -78 43 -304 177 -688 321 -1143 427 -100 24 -295 54
-420 65 -38 4 -86 9 -105 11 -44 6 -516 14 -521 10z m426 -4450 c61 -4 124 -9
140 -10 17 -2 60 -7 97 -10 37 -4 77 -9 90 -12 13 -2 43 -7 68 -10 25 -3 88
-14 140 -24 52 -11 106 -22 120 -24 39 -7 248 -62 320 -84 335 -103 630 -235
970 -434 80 -46 165 -96 190 -110 25 -14 113 -65 195 -113 83 -48 165 -96 183
-106 17 -11 47 -27 65 -38 169 -97 354 -205 362 -211 6 -4 42 -24 80 -45 39
-21 77 -44 86 -51 8 -8 18 -14 21 -14 3 0 94 -52 202 -115 109 -63 199 -115
201 -115 2 0 51 -29 110 -65 58 -36 108 -65 110 -65 3 0 53 -29 112 -64 100
-58 460 -267 528 -306 17 -10 55 -32 85 -50 30 -18 73 -43 95 -55 22 -12 123
-70 225 -130 102 -59 205 -119 230 -133 25 -14 88 -51 140 -82 52 -31 138 -81
190 -111 52 -30 103 -58 112 -64 33 -19 303 -176 318 -185 8 -5 71 -42 138
-82 174 -103 221 -134 347 -228 77 -57 83 -62 103 -80 10 -8 38 -31 62 -50 89
-69 363 -334 461 -445 334 -380 617 -858 789 -1335 39 -108 87 -252 95 -289 3
-9 14 -52 26 -96 11 -44 22 -87 24 -96 2 -9 12 -59 23 -110 11 -52 23 -112 26
-134 4 -22 11 -65 16 -95 5 -30 12 -82 15 -115 4 -33 8 -71 11 -85 15 -90 18
-531 19 -2740 0 -2178 -4 -2685 -20 -2733 -2 -7 -7 -39 -9 -72 -3 -33 -8 -71
-10 -85 -5 -28 -16 -93 -21 -130 -8 -54 -47 -236 -55 -260 -5 -14 -11 -36 -14
-50 -13 -76 -120 -409 -162 -505 -10 -22 -19 -44 -20 -50 -5 -22 -165 -358
-194 -405 -5 -8 -39 -67 -76 -130 -82 -142 -213 -334 -312 -460 -235 -297
-526 -579 -832 -807 -89 -66 -354 -243 -365 -243 -2 0 -37 -20 -77 -44 -79
-48 -119 -71 -243 -141 -44 -25 -87 -50 -95 -55 -8 -6 -67 -40 -130 -77 -63
-36 -266 -154 -450 -261 -184 -107 -360 -208 -390 -225 -30 -16 -59 -33 -65
-38 -5 -4 -122 -72 -260 -151 -137 -80 -338 -196 -445 -258 -107 -62 -420
-244 -695 -403 -275 -160 -556 -323 -625 -363 -652 -379 -764 -439 -980 -529
-63 -26 -124 -52 -135 -56 -74 -31 -305 -106 -415 -135 -30 -8 -63 -17 -72
-19 -55 -15 -289 -63 -343 -70 -27 -4 -52 -8 -55 -10 -3 -2 -34 -6 -70 -10
-36 -3 -76 -8 -90 -10 -134 -20 -636 -28 -820 -12 -104 9 -348 42 -420 57
-290 59 -503 120 -765 219 -16 6 -39 16 -50 21 -11 5 -56 24 -100 43 -125 54
-274 127 -344 169 -34 21 -65 38 -68 38 -2 0 -38 20 -79 45 -40 25 -76 45 -78
45 -3 0 -35 18 -73 41 -37 22 -75 45 -83 49 -8 5 -51 30 -95 56 -44 26 -98 57
-120 70 -22 12 -86 49 -143 83 -57 34 -106 61 -108 61 -2 0 -23 11 -45 26 -22
14 -55 33 -72 43 -67 39 -353 204 -622 360 -154 90 -325 189 -380 221 -55 32
-181 105 -280 163 -99 57 -225 130 -280 162 -112 65 -324 188 -370 215 -16 10
-75 43 -130 75 -55 32 -210 122 -345 200 -135 79 -261 152 -280 163 -19 11
-102 59 -185 107 -82 48 -170 99 -195 113 -25 13 -99 58 -165 98 -66 41 -129
80 -140 87 -11 7 -22 14 -25 17 -3 3 -36 28 -75 55 -242 169 -561 468 -760
709 -444 540 -748 1181 -885 1867 -6 30 -13 69 -15 85 -3 16 -8 45 -11 64 -8
42 -9 47 -19 130 -4 36 -9 74 -11 84 -2 11 -7 65 -11 120 -10 132 -10 5152 0
5276 12 150 20 216 42 345 3 17 8 46 11 65 2 19 11 64 19 100 8 36 16 79 20
95 4 24 34 141 49 190 2 6 6 24 11 40 4 17 23 77 43 135 163 489 398 921 720
1325 151 189 411 455 571 585 23 19 53 44 64 54 81 71 365 270 502 353 37 21
527 306 595 345 51 29 324 188 470 273 244 142 485 283 520 302 39 23 506 293
760 441 90 52 175 102 190 109 14 8 39 22 55 32 43 26 336 196 430 250 44 25
88 50 97 56 48 28 434 252 457 265 59 34 347 202 361 211 108 66 393 214 507
262 189 80 461 176 573 202 8 2 53 13 100 25 95 24 92 24 210 46 114 22 109
21 160 29 69 10 90 13 155 20 33 4 71 8 85 10 14 2 74 7 135 10 60 3 110 7
111 8 5 5 308 -1 409 -7z"/>
<path d="M17697 27084 c-1 -1 -38 -5 -82 -8 -97 -6 -152 -14 -295 -42 -96 -19
-314 -85 -362 -110 -15 -8 -31 -15 -35 -15 -34 -5 -208 -90 -328 -161 -118
-69 -622 -369 -845 -501 -74 -44 -146 -87 -160 -94 -14 -8 -38 -23 -55 -33
-16 -11 -43 -27 -60 -36 -16 -9 -85 -50 -153 -90 -68 -41 -125 -74 -128 -74
-3 0 -10 -5 -17 -10 -7 -6 -200 -122 -430 -258 -462 -273 -569 -347 -727 -502
-255 -250 -435 -539 -551 -883 -29 -88 -71 -252 -83 -327 -3 -19 -8 -44 -10
-56 -4 -19 -10 -70 -22 -179 -7 -69 -7 -2837 1 -2904 4 -35 8 -80 10 -100 4
-47 21 -141 45 -246 14 -64 80 -277 89 -290 4 -5 16 -32 26 -60 10 -27 45
-103 77 -167 164 -326 428 -632 723 -839 68 -48 305 -191 465 -281 25 -14 113
-65 195 -113 129 -76 519 -303 610 -355 17 -9 55 -32 85 -50 30 -18 69 -41 85
-50 17 -9 87 -50 155 -90 69 -40 145 -84 170 -98 25 -14 77 -44 115 -67 257
-154 546 -316 640 -360 225 -107 503 -187 725 -210 30 -4 69 -8 85 -10 38 -6
317 -6 370 0 22 2 65 7 95 10 130 14 387 73 480 109 19 8 62 24 95 37 74 27
299 137 380 185 33 20 78 46 100 59 22 12 76 44 120 70 44 26 94 56 110 65 89
51 244 141 345 200 63 37 133 78 155 90 22 12 94 54 160 93 240 141 356 208
655 381 168 97 312 181 320 186 26 16 124 72 170 98 135 75 317 209 434 319
326 309 574 766 650 1198 3 17 8 41 11 56 31 139 33 267 33 1669 0 778 -4
1449 -9 1490 -15 130 -20 163 -40 255 -95 435 -318 838 -631 1140 -178 173
-283 250 -568 415 -107 62 -206 120 -220 128 -14 9 -27 17 -30 17 -3 0 -16 8
-30 17 -26 16 -428 251 -490 285 -19 11 -102 60 -185 108 -82 48 -163 96 -180
105 -16 9 -77 45 -133 79 -57 33 -105 61 -107 61 -2 0 -92 52 -202 116 -276
162 -520 304 -607 353 -178 101 -532 219 -741 247 -27 3 -52 7 -55 9 -15 9
-405 27 -413 19z"/>
</g>
</svg>
