<svg id="Layer_1" data-name="Layer 1" xmlns="http://www.w3.org/2000/svg" xmlns:xlink="http://www.w3.org/1999/xlink" viewBox="0 0 4814.88 1271.05"><defs><linearGradient id="linear-gradient" x1="41.69" y1="674.14" x2="907.96" y2="674.14" gradientUnits="userSpaceOnUse"><stop offset="0" stop-color="#2297d1"/><stop offset="0.84" stop-color="#095a9e"/></linearGradient><linearGradient id="linear-gradient-2" x1="314.03" y1="515.7" x2="637.07" y2="515.7" gradientUnits="userSpaceOnUse"><stop offset="0" stop-color="#2281d1"/><stop offset="1" stop-color="#095a9e"/></linearGradient></defs><title>logo</title><g id="SvgjsG1105"><path d="M832.63,222.35,550.15,60.11a147.77,147.77,0,0,0-150.65,0L117,222.35c-46.35,26.08-75.33,76.78-75.33,130.38V678.66c0,53.6,29,102.85,75.33,130.38L295.2,911.89,474.83,1308.8,654.45,911.89,832.63,809C879,783,908,732.26,908,678.66V352.73C906.51,299.13,879,249.88,832.63,222.35ZM768.89,599c0,53.6-29,102.85-75.33,130.37l-144.86,84a152,152,0,0,1-149.2,0l-144.86-84c-46.36-26.07-75.33-76.77-75.33-130.37V432.4c0-53.6,29-102.85,75.33-130.37L399.5,218a152,152,0,0,1,149.2,0l144.86,84c46.36,26.07,75.33,76.77,75.33,130.37Z" transform="translate(-41.19 -38.97)" style="stroke:#000;stroke-miterlimit:10;fill:url(#linear-gradient)"/><path d="M595.06,399.08l-79.67-46.35a83.85,83.85,0,0,0-82.57,0l-78.23,46.35c-26.07,14.49-40.56,42-40.56,71v91.27a83.36,83.36,0,0,0,40.56,71l79.68,46.35a83.85,83.85,0,0,0,82.57,0l79.67-46.35c26.07-14.49,40.56-42,40.56-71V470.06A81.66,81.66,0,0,0,595.06,399.08Z" transform="translate(-41.19 -38.97)" style="fill:url(#linear-gradient-2)"/></g><path d="M1297.7,314.62h304.22c179.16,0,326,62.21,326,263,0,194.12-146.84,277.67-326,277.67H1488.67v304h-191Zm288.66,389.1c100.45,0,154.41-43,154.41-126.06,0-83.53-54-111.42-154.41-111.42h-97.69V703.72ZM1567,805l132.08-122.19,269.58,476.5H1755Z" transform="translate(-41.19 -38.97)" style="fill:#444"/><path d="M2234.09,474.78h-232.5V314.62h656V474.78h-232.5v684.53h-191Z" transform="translate(-41.19 -38.97)" style="fill:#444"/><path d="M2803.84,309.47H2922.6V1059H3289v100.33H2803.84Z" transform="translate(-41.19 -38.97)" style="fill:#545454"/><path d="M3355.69,731.24c0-272.88,150.68-437.33,366.1-437.33s366.1,165,366.1,437.33c0,272.89-150.67,443.62-366.1,443.62S3355.69,1004.13,3355.69,731.24Zm609.74,0c0-206.49-96.43-333.3-243.64-333.3s-243.64,126.81-243.64,333.3,96.43,339.59,243.64,339.59S3965.43,937.73,3965.43,731.24Z" transform="translate(-41.19 -38.97)" style="fill:#545454"/><path d="M4220.12,735.66c0-275.09,164.64-441.75,380.16-441.75,104,0,185.81,50.36,236.5,105.51l-64.57,77.1c-44.44-46.71-99.31-78.58-169.72-78.58-155,0-259.91,127.92-259.91,334.41,0,208.7,99.35,338.48,255.83,338.48,79.68,0,140.44-35.18,193.1-93.4l64.57,74.5c-67.57,78.48-152.12,122.93-262.47,122.93C4381.45,1174.86,4220.12,1013,4220.12,735.66Z" transform="translate(-41.19 -38.97)" style="fill:#545454"/></svg>